<svg xmlns="http://www.w3.org/2000/svg" xmlns:xlink="http://www.w3.org/1999/xlink" width="500" zoomAndPan="magnify" viewBox="0 0 375 374.999991" height="500" preserveAspectRatio="xMidYMid meet" version="1.0"><defs><clipPath id="id1"><path d="M 0 113 L 161 113 L 161 277 L 0 277 Z M 0 113 " clip-rule="nonzero"/></clipPath><clipPath id="id2"><path d="M 106.636719 26.90625 L 213.0625 202.703125 L 91.800781 276.109375 L -14.621094 100.316406 Z M 106.636719 26.90625 " clip-rule="nonzero"/></clipPath><clipPath id="id3"><path d="M 106.636719 26.90625 L 214.613281 205.269531 L 28.550781 317.90625 L -79.425781 139.542969 Z M 106.636719 26.90625 " clip-rule="nonzero"/></clipPath><clipPath id="id4"><path d="M 158.398438 151.636719 L 323.398438 151.636719 L 323.398438 316.636719 L 158.398438 316.636719 Z M 158.398438 151.636719 " clip-rule="nonzero"/></clipPath></defs><g clip-path="url(#id1)"><g clip-path="url(#id2)"><g clip-path="url(#id3)"><path fill="rgb(10.5896%, 33.329773%, 67.449951%)" d="M 160.308594 120.304688 C 161.144531 117.785156 159.363281 114.839844 156.738281 114.40625 C 155.855469 114.261719 140.308594 111.820312 126.539062 113.960938 L 146.703125 147.269531 C 154.984375 136.058594 160.027344 121.152344 160.308594 120.304688 Z M 45.535156 296.957031 C 45.8125 296.808594 46.078125 296.648438 46.347656 296.484375 C 59.171875 288.722656 63.289062 271.972656 55.53125 259.152344 C 50.90625 251.515625 43.078125 246.828125 34.484375 246.175781 C 34.550781 244.324219 34.230469 242.449219 33.535156 240.6875 L 33.699219 240.589844 C 42.25 235.414062 44.996094 224.25 39.820312 215.703125 C 38.898438 214.183594 37.777344 212.816406 36.484375 211.640625 C 39.132812 208.636719 41.558594 206.132812 43.472656 204.234375 L 45.316406 207.28125 C 46.609375 209.417969 49.398438 210.105469 51.539062 208.808594 C 52.242188 208.382812 52.796875 207.792969 53.160156 207.117188 L 61.558594 198.65625 C 63 200.003906 65.171875 200.355469 66.945312 199.28125 L 136.71875 157.039062 C 137.976562 156.28125 139.128906 155.230469 140.304688 154.214844 L 117.421875 116.417969 C 115.976562 116.984375 114.511719 117.523438 113.257812 118.285156 L 43.484375 160.523438 C 41.707031 161.597656 41.011719 163.683594 41.539062 165.585938 L 28.992188 169.464844 C 27.65625 169.871094 26.585938 170.878906 26.09375 172.183594 C 25.59375 173.492188 25.730469 174.945312 26.453125 176.140625 L 28.203125 179.03125 C 25.632812 179.84375 22.289062 180.84375 18.398438 181.789062 C 17.964844 180.089844 17.277344 178.464844 16.355469 176.945312 C 11.179688 168.394531 0.0195312 165.652344 -8.535156 170.828125 L -8.695312 170.925781 C -9.933594 169.492188 -11.433594 168.347656 -13.117188 167.542969 C -9.710938 159.625 -10.234375 150.515625 -14.859375 142.878906 C -22.621094 130.058594 -39.371094 125.941406 -52.195312 133.707031 C -52.410156 133.835938 -52.636719 133.972656 -52.847656 134.113281 C -57.1875 130.566406 -63.460938 129.933594 -68.515625 132.996094 C -74.925781 136.875 -76.984375 145.25 -73.105469 151.660156 L 20.746094 306.6875 C 24.625 313.101562 33 315.15625 39.414062 311.277344 C 44.367188 308.277344 46.726562 302.601562 45.535156 296.957031 Z M -33.421875 164.710938 C -36.007812 160.441406 -41.597656 159.066406 -45.867188 161.652344 C -48.007812 162.949219 -50.796875 162.261719 -52.089844 160.125 C -53.386719 157.984375 -52.699219 155.199219 -50.5625 153.902344 C -42.011719 148.726562 -30.847656 151.46875 -25.671875 160.019531 C -24.375 162.15625 -25.0625 164.945312 -27.199219 166.242188 C -29.339844 167.535156 -32.128906 166.851562 -33.421875 164.710938 Z M 105.613281 149.390625 C 106.910156 151.53125 106.222656 154.316406 104.085938 155.613281 C 101.945312 156.910156 99.15625 156.222656 97.863281 154.082031 C 96.566406 151.945312 97.25 149.15625 99.390625 147.863281 C 101.53125 146.566406 104.320312 147.25 105.613281 149.390625 Z M 46.140625 173.648438 L 56.554688 190.847656 L 49.976562 197.476562 L 37.214844 176.402344 Z M -10.375 202.871094 C -12.875 202.945312 -14.957031 200.972656 -15.03125 198.46875 C -15.101562 196.148438 -15.785156 193.847656 -17 191.839844 C -20.878906 185.429688 -29.257812 183.371094 -35.667969 187.253906 C -37.808594 188.550781 -40.59375 187.863281 -41.890625 185.726562 C -43.183594 183.585938 -42.5 180.796875 -40.359375 179.503906 C -29.675781 173.035156 -15.714844 176.46875 -9.246094 187.148438 C -7.21875 190.496094 -6.09375 194.316406 -5.980469 198.210938 C -5.90625 200.71875 -7.875 202.800781 -10.375 202.871094 Z M 3.976562 192.734375 C 5.273438 190.589844 8.058594 189.902344 10.199219 191.199219 C 18.878906 196.453125 24.75 206.171875 25.386719 216.292969 C 25.546875 218.792969 23.644531 220.9375 21.148438 221.101562 C 19.40625 221.214844 17.824219 220.320312 16.980469 218.925781 C 16.613281 218.320312 16.382812 217.621094 16.339844 216.867188 C 15.878906 209.539062 11.761719 202.742188 5.496094 198.953125 C 3.351562 197.65625 2.683594 194.871094 3.976562 192.734375 Z M -9.042969 239.984375 C -10.335938 237.84375 -9.652344 235.058594 -7.511719 233.761719 C -5.371094 232.46875 -4.6875 229.679688 -5.980469 227.539062 C -7.277344 225.402344 -10.066406 224.714844 -12.203125 226.011719 C -14.34375 227.304688 -17.132812 226.621094 -18.425781 224.480469 C -19.722656 222.34375 -19.035156 219.554688 -16.898438 218.261719 C -10.484375 214.378906 -2.109375 216.4375 1.769531 222.847656 C 5.652344 229.257812 3.589844 237.632812 -2.820312 241.515625 C -4.960938 242.808594 -7.746094 242.125 -9.042969 239.984375 Z M 4.964844 263.121094 C 3.667969 260.984375 4.355469 258.195312 6.496094 256.902344 C 12.90625 253.019531 14.964844 244.644531 11.085938 238.234375 C 9.789062 236.09375 10.476562 233.308594 12.613281 232.011719 C 14.753906 230.714844 17.542969 231.402344 18.835938 233.539062 C 25.304688 244.222656 21.871094 258.183594 11.1875 264.652344 C 9.046875 265.949219 6.261719 265.261719 4.964844 263.121094 Z M 22.988281 284.148438 C 21.695312 282.007812 22.378906 279.21875 24.519531 277.925781 C 28.789062 275.339844 30.164062 269.75 27.578125 265.480469 C 26.285156 263.339844 26.96875 260.554688 29.109375 259.257812 C 31.25 257.960938 34.035156 258.648438 35.332031 260.785156 C 40.507812 269.335938 37.761719 280.5 29.210938 285.675781 C 27.070312 286.972656 24.285156 286.285156 22.988281 284.148438 Z M 59.550781 225.332031 C 58.433594 226.835938 58.363281 228.835938 59.304688 230.386719 C 59.453125 230.632812 59.625 230.867188 59.824219 231.089844 C 61.28125 232.695312 63.664062 233.042969 65.527344 231.914062 C 79.621094 223.382812 90.601562 212.5625 95.675781 202.234375 C 96.5625 200.425781 96.140625 198.246094 94.664062 196.894531 C 93.179688 195.539062 90.980469 195.320312 89.261719 196.363281 L 71.644531 207.027344 C 70.871094 207.496094 70.058594 207.871094 69.242188 208.164062 C 67.816406 208.679688 66.746094 209.867188 66.382812 211.335938 C 65.203125 216.085938 62.835938 220.929688 59.550781 225.332031 Z M 11.996094 152.085938 C 12.101562 152.363281 12.226562 152.625 12.378906 152.871094 C 13.316406 154.421875 15.121094 155.289062 16.96875 154.996094 C 22.398438 154.125 27.785156 154.277344 32.53125 155.4375 C 34 155.796875 35.554688 155.386719 36.667969 154.375 C 37.316406 153.78125 38.023438 153.234375 38.796875 152.765625 L 56.414062 142.105469 C 58.132812 141.0625 58.960938 139.015625 58.449219 137.066406 C 57.941406 135.128906 56.210938 133.753906 54.183594 133.699219 C 42.683594 133.40625 28.003906 138.117188 13.910156 146.648438 C 12.054688 147.773438 11.25 150.046875 11.996094 152.085938 Z M 11.996094 152.085938 " fill-opacity="1" fill-rule="nonzero"/></g></g></g><g clip-path="url(#id4)"><path fill="rgb(10.5896%, 33.329773%, 67.449951%)" d="M 294.28125 291.722656 C 291.980469 290.046875 289.289062 289.359375 286.527344 289.804688 C 283.394531 290.308594 280.644531 292.234375 279.339844 294.828125 C 278.496094 296.5 278.386719 298.359375 279.03125 300.070312 C 279.3125 300.8125 279.734375 301.492188 280.261719 302.09375 C 268.8125 308.75 255.554688 312.613281 241.410156 312.699219 C 239.75 306.011719 230.226562 299.308594 223.566406 299.308594 C 216.636719 299.308594 212.226562 302.003906 211.035156 306.792969 C 185.703125 296.335938 166.992188 273.019531 163.09375 245.007812 C 164.980469 244.0625 167.988281 242.066406 168.691406 238.726562 C 169.691406 233.953125 167.808594 230.53125 162.609375 227.757812 C 165.871094 187.410156 199.722656 155.566406 240.898438 155.566406 C 259.109375 155.566406 275.871094 161.8125 289.210938 172.242188 C 286.535156 178.734375 288.132812 184.207031 293.988281 188.519531 C 296.496094 190.367188 299.039062 190.925781 301.25 190.925781 C 303.15625 190.925781 304.808594 190.507812 305.964844 190.144531 C 314.488281 202.703125 319.46875 217.851562 319.46875 234.136719 C 319.46875 256.867188 309.761719 277.363281 294.28125 291.722656 Z M 283.710938 299.96875 C 283.257812 299.621094 282.898438 299.179688 282.710938 298.679688 C 282.453125 298.003906 282.5 297.28125 282.847656 296.589844 C 283.585938 295.128906 285.273438 293.988281 287.148438 293.6875 C 288.558594 293.457031 289.953125 293.722656 291.222656 294.421875 C 288.839844 296.417969 286.328125 298.265625 283.710938 299.96875 Z M 214.71875 308.203125 C 215.039062 306.175781 216.542969 303.234375 223.566406 303.234375 C 228.128906 303.234375 235.429688 308.117188 237.300781 312.628906 C 229.414062 312.269531 221.832031 310.726562 214.71875 308.203125 Z M 162.324219 234.136719 C 162.324219 233.488281 162.355469 232.84375 162.378906 232.195312 C 165.289062 234.214844 165.238281 236.0625 164.847656 237.917969 C 164.601562 239.058594 163.640625 240.015625 162.621094 240.722656 C 162.4375 238.546875 162.324219 236.359375 162.324219 234.136719 Z M 292.417969 174.890625 C 296.511719 178.457031 300.234375 182.421875 303.515625 186.746094 C 301.523438 187.195312 298.925781 187.28125 296.316406 185.359375 C 292.320312 182.410156 291.070312 179.117188 292.417969 174.890625 Z M 240.898438 151.636719 C 195.40625 151.636719 158.398438 188.648438 158.398438 234.136719 C 158.398438 279.628906 195.40625 316.636719 240.898438 316.636719 C 286.386719 316.636719 323.398438 279.628906 323.398438 234.136719 C 323.398438 188.648438 286.386719 151.636719 240.898438 151.636719 " fill-opacity="1" fill-rule="nonzero"/></g><path fill="rgb(10.5896%, 33.329773%, 67.449951%)" d="M 254.636719 279.15625 C 252.785156 280.566406 250.265625 280.875 247.351562 280.070312 C 239.878906 277.980469 235.648438 276.535156 235.648438 271.03125 C 235.648438 264.191406 241.671875 261.761719 246.828125 261.761719 C 251.984375 261.761719 258.003906 264.191406 258.003906 271.03125 C 258.003906 274.574219 256.777344 277.535156 254.636719 279.15625 Z M 246.828125 257.832031 C 237.792969 257.832031 231.71875 263.136719 231.71875 271.03125 C 231.71875 279.78125 239.132812 281.855469 246.300781 283.847656 C 247.804688 284.269531 249.160156 284.441406 250.375 284.441406 C 253.40625 284.441406 255.589844 283.367188 257.015625 282.285156 C 260.140625 279.914062 261.933594 275.8125 261.933594 271.03125 C 261.933594 263.136719 255.859375 257.832031 246.828125 257.832031 " fill-opacity="1" fill-rule="nonzero"/><path fill="rgb(10.5896%, 33.329773%, 67.449951%)" d="M 224.523438 181.839844 C 215.378906 181.839844 214.621094 179.429688 214.621094 176.746094 C 214.621094 172.558594 218.332031 168.121094 225.207031 168.121094 C 231.558594 168.121094 235.992188 171.34375 235.992188 175.957031 C 235.992188 181.265625 227.972656 181.839844 224.523438 181.839844 Z M 239.921875 175.957031 C 239.921875 169.136719 233.730469 164.191406 225.207031 164.191406 C 215.78125 164.191406 210.691406 170.65625 210.691406 176.746094 C 210.691406 185.769531 220.386719 185.769531 224.523438 185.769531 C 234.308594 185.769531 239.921875 182.191406 239.921875 175.957031 " fill-opacity="1" fill-rule="nonzero"/><path fill="rgb(10.5896%, 33.329773%, 67.449951%)" d="M 285.386719 216.617188 C 282.5625 216.617188 280.289062 213.128906 280.289062 210.246094 C 280.289062 208.351562 280.503906 207.695312 284.746094 207.695312 C 288.664062 207.695312 289.207031 209.46875 289.207031 211.375 C 289.207031 213.328125 288.710938 216.617188 285.386719 216.617188 Z M 284.746094 203.769531 C 281.816406 203.769531 276.363281 203.769531 276.363281 210.246094 C 276.363281 215.113281 280.066406 220.546875 285.386719 220.546875 C 290.089844 220.546875 293.136719 216.945312 293.136719 211.375 C 293.136719 206.539062 290.078125 203.769531 284.746094 203.769531 " fill-opacity="1" fill-rule="nonzero"/><path fill="rgb(10.5896%, 33.329773%, 67.449951%)" d="M 202.65625 242.441406 C 201.371094 242.441406 197.953125 242.441406 197.953125 236.363281 C 197.953125 234.539062 198.476562 230.285156 203.339844 230.285156 C 207.171875 230.285156 208.539062 233.679688 208.539062 236.855469 C 208.539062 240.40625 206.394531 242.441406 202.65625 242.441406 Z M 203.339844 226.359375 C 197.769531 226.359375 194.027344 230.378906 194.027344 236.363281 C 194.027344 242.625 197.25 246.367188 202.65625 246.367188 C 208.523438 246.367188 212.464844 242.542969 212.464844 236.855469 C 212.464844 230.574219 208.800781 226.359375 203.339844 226.359375 " fill-opacity="1" fill-rule="nonzero"/><path fill="rgb(10.5896%, 33.329773%, 67.449951%)" d="M 229.761719 211.722656 C 229.625 211.125 229.8125 209.539062 230.699219 208.511719 C 231.167969 207.964844 231.730469 207.695312 232.460938 207.695312 C 232.542969 207.695312 232.636719 207.703125 232.726562 207.710938 C 234.863281 207.882812 235.859375 208.769531 235.859375 210.511719 C 235.859375 211.804688 234.765625 213.445312 234.09375 213.445312 C 233.789062 213.445312 233.453125 213.460938 233.105469 213.476562 C 230.792969 213.585938 230.164062 213.425781 229.761719 211.722656 Z M 233.292969 217.402344 C 233.574219 217.390625 233.84375 217.375 234.09375 217.375 C 237.300781 217.375 239.789062 213.683594 239.789062 210.511719 C 239.789062 207.523438 238.011719 204.191406 233.039062 203.792969 C 230.941406 203.621094 229.054688 204.390625 227.714844 205.949219 C 225.992188 207.957031 225.515625 210.828125 225.941406 212.628906 C 226.953125 216.921875 230.089844 217.429688 232.242188 217.429688 C 232.632812 217.429688 232.984375 217.417969 233.292969 217.402344 " fill-opacity="1" fill-rule="nonzero"/><path fill="rgb(10.5896%, 33.329773%, 67.449951%)" d="M 267.808594 176.585938 C 267.457031 178.105469 266.539062 178.558594 265.675781 178.558594 C 265.542969 178.558594 265.414062 178.550781 265.289062 178.53125 C 264.332031 178.386719 263.144531 177.441406 263.289062 176.484375 C 263.429688 175.523438 263.292969 173.992188 265.199219 173.832031 C 265.242188 173.828125 265.28125 173.828125 265.324219 173.828125 C 266.332031 173.828125 268.234375 174.753906 267.808594 176.585938 Z M 265.324219 169.898438 C 265.167969 169.898438 265.015625 169.90625 264.875 169.921875 C 263.042969 170.074219 259.902344 171.023438 259.429688 175.671875 C 259.421875 175.75 259.414062 175.828125 259.40625 175.898438 C 258.902344 179.25 261.742188 181.972656 264.703125 182.417969 C 265.027344 182.464844 265.355469 182.488281 265.675781 182.488281 C 268.59375 182.488281 270.929688 180.519531 271.636719 177.476562 C 272.058594 175.65625 271.660156 173.863281 270.519531 172.421875 C 269.304688 170.890625 267.261719 169.898438 265.324219 169.898438 " fill-opacity="1" fill-rule="nonzero"/><path fill="rgb(10.5896%, 33.329773%, 67.449951%)" d="M 265.527344 236.082031 C 265.175781 237.601562 264.253906 238.050781 263.394531 238.050781 C 263.261719 238.050781 263.128906 238.042969 263.007812 238.027344 C 262.042969 237.882812 260.863281 236.9375 261.007812 235.972656 C 261.148438 235.019531 261.011719 233.488281 262.917969 233.328125 C 262.960938 233.324219 263 233.324219 263.042969 233.324219 C 264.050781 233.324219 265.953125 234.25 265.527344 236.082031 Z M 263.042969 229.394531 C 262.886719 229.394531 262.734375 229.402344 262.589844 229.417969 C 260.761719 229.570312 257.613281 230.515625 257.144531 235.167969 C 257.140625 235.25 257.132812 235.324219 257.125 235.398438 C 256.621094 238.746094 259.460938 241.46875 262.421875 241.910156 C 262.746094 241.960938 263.074219 241.980469 263.394531 241.980469 C 266.304688 241.980469 268.648438 240.015625 269.355469 236.972656 C 269.777344 235.152344 269.378906 233.355469 268.238281 231.917969 C 267.023438 230.386719 264.980469 229.394531 263.042969 229.394531 " fill-opacity="1" fill-rule="nonzero"/><path fill="rgb(10.5896%, 33.329773%, 67.449951%)" d="M 183.242188 195.421875 C 183.242188 194.207031 184.230469 193.21875 185.449219 193.21875 C 186.773438 193.21875 188.597656 194.769531 188.597656 195.894531 C 188.597656 197.246094 187.566406 198.578125 186.511719 198.578125 C 185.257812 198.578125 183.242188 196.628906 183.242188 195.421875 Z M 192.527344 195.894531 C 192.527344 192.339844 188.632812 189.292969 185.449219 189.292969 C 182.066406 189.292969 179.3125 192.042969 179.3125 195.421875 C 179.3125 198.796875 183.078125 202.503906 186.511719 202.503906 C 190.109375 202.503906 192.527344 199.089844 192.527344 195.894531 " fill-opacity="1" fill-rule="nonzero"/><path fill="rgb(10.5896%, 33.329773%, 67.449951%)" d="M 303.707031 254.519531 C 301.210938 254.519531 297.640625 251.050781 297.640625 248.628906 C 297.640625 246.183594 299.632812 244.195312 302.078125 244.195312 C 304.660156 244.195312 307.964844 247.089844 307.964844 249.355469 C 307.964844 251.792969 306.144531 254.519531 303.707031 254.519531 Z M 302.078125 240.265625 C 297.460938 240.265625 293.714844 244.015625 293.714844 248.628906 C 293.714844 253.21875 299.039062 258.445312 303.707031 258.445312 C 308.605469 258.445312 311.894531 253.746094 311.894531 249.355469 C 311.894531 244.546875 306.40625 240.265625 302.078125 240.265625 " fill-opacity="1" fill-rule="nonzero"/><path fill="rgb(10.5896%, 33.329773%, 67.449951%)" d="M 192.429688 280.675781 C 189.878906 280.675781 188.476562 279.277344 188.476562 276.734375 C 188.476562 274.324219 189.804688 273.101562 192.429688 273.101562 C 195.054688 273.101562 196.382812 274.324219 196.382812 276.734375 C 196.382812 279.277344 194.980469 280.675781 192.429688 280.675781 Z M 192.429688 269.171875 C 187.640625 269.171875 184.546875 272.140625 184.546875 276.734375 C 184.546875 281.441406 187.714844 284.605469 192.429688 284.605469 C 197.144531 284.605469 200.3125 281.441406 200.3125 276.734375 C 200.3125 272.140625 197.21875 269.171875 192.429688 269.171875 " fill-opacity="1" fill-rule="nonzero"/></svg>