<svg xmlns="http://www.w3.org/2000/svg" xmlns:xlink="http://www.w3.org/1999/xlink" width="500" zoomAndPan="magnify" viewBox="0 0 375 374.999991" height="500" preserveAspectRatio="xMidYMid meet" version="1.0"><defs><clipPath id="id1"><path d="M 52.167969 84.660156 L 289.917969 84.660156 L 289.917969 290.160156 L 52.167969 290.160156 Z M 52.167969 84.660156 " clip-rule="nonzero"/></clipPath><clipPath id="id2"><path d="M 86.28125 114.179688 L 255.78125 114.179688 L 255.78125 261.179688 L 86.28125 261.179688 Z M 86.28125 114.179688 " clip-rule="nonzero"/></clipPath><clipPath id="id3"><path d="M 262 190 L 304 190 L 304 260.75 L 262 260.75 Z M 262 190 " clip-rule="nonzero"/></clipPath><clipPath id="id4"><path d="M 199 97.25 L 337 97.25 L 337 236 L 199 236 Z M 199 97.25 " clip-rule="nonzero"/></clipPath></defs><g clip-path="url(#id1)"><path fill="rgb(100%, 48.239136%, 16.468811%)" d="M 111.644531 290.160156 L 52.246094 187.410156 L 111.644531 84.660156 L 230.441406 84.660156 L 289.84375 187.410156 L 230.441406 290.160156 Z M 111.644531 290.160156 " fill-opacity="1" fill-rule="nonzero"/></g><g clip-path="url(#id2)"><path fill="rgb(100%, 100%, 100%)" d="M 128.683594 261.179688 L 86.332031 187.679688 L 128.683594 114.179688 L 213.382812 114.179688 L 255.730469 187.679688 L 213.382812 261.179688 Z M 128.683594 261.179688 " fill-opacity="1" fill-rule="nonzero"/></g><path fill="rgb(24.708557%, 75.689697%, 78.819275%)" d="M 242.65625 144.40625 C 244.359375 142.886719 245.027344 140.503906 244.359375 138.316406 C 243.703125 136.117188 241.828125 134.507812 239.570312 134.1875 C 227.636719 132.460938 210.847656 130.664062 204.070312 132.023438 C 200.527344 132.722656 196.359375 134.726562 192.320312 137.292969 C 184.011719 142.597656 176.117188 150.226562 176.117188 150.226562 C 174.644531 151.664062 174.023438 153.773438 174.484375 155.773438 C 174.933594 157.777344 176.40625 159.398438 178.363281 160.054688 L 212.515625 171.4375 C 214.910156 172.242188 217.535156 171.425781 219.066406 169.433594 C 226.027344 160.308594 234.082031 152.078125 242.65625 144.40625 " fill-opacity="1" fill-rule="evenodd"/><g clip-path="url(#id3)"><path fill="rgb(24.708557%, 75.689697%, 78.819275%)" d="M 300.492188 195.105469 C 300.171875 192.851562 298.558594 190.976562 296.363281 190.320312 C 294.175781 189.652344 291.792969 190.320312 290.273438 192.023438 C 282.597656 200.597656 274.371094 208.652344 265.246094 215.613281 C 263.253906 217.144531 262.4375 219.769531 263.242188 222.160156 L 274.625 256.316406 C 275.28125 258.273438 276.902344 259.746094 278.90625 260.195312 C 280.90625 260.652344 283.011719 260.03125 284.453125 258.558594 C 284.453125 258.558594 292.082031 250.664062 297.386719 242.355469 C 299.953125 238.316406 301.953125 234.152344 302.65625 230.609375 C 304.015625 223.828125 302.21875 207.039062 300.492188 195.105469 " fill-opacity="1" fill-rule="evenodd"/></g><g clip-path="url(#id4)"><path fill="rgb(91.758728%, 91.758728%, 91.758728%)" d="M 336.097656 104.183594 C 335.949219 101.160156 333.519531 98.730469 330.492188 98.582031 C 320.207031 98.085938 303.703125 97.164062 293.691406 99.5 C 282.367188 102.136719 266.15625 110.386719 257.15625 117.292969 C 235.429688 133.945312 214.164062 152.503906 200.136719 176.488281 C 198.789062 178.800781 199.15625 181.734375 201.054688 183.621094 L 251.054688 233.621094 C 252.945312 235.523438 255.878906 235.890625 258.191406 234.542969 C 282.171875 220.515625 300.734375 199.25 317.386719 177.523438 C 324.289062 168.523438 332.542969 152.308594 335.175781 140.988281 C 337.511719 130.976562 336.59375 114.472656 336.097656 104.183594 " fill-opacity="1" fill-rule="evenodd"/></g><path fill="rgb(24.708557%, 75.689697%, 78.819275%)" d="M 280.214844 154.460938 C 271.023438 145.265625 256.085938 145.265625 246.878906 154.460938 C 237.683594 163.65625 237.683594 178.59375 246.878906 187.800781 C 256.085938 196.996094 271.023438 196.996094 280.214844 187.800781 C 289.410156 178.59375 289.410156 163.65625 280.214844 154.460938 " fill-opacity="1" fill-rule="evenodd"/><path fill="rgb(21.179199%, 30.979919%, 41.958618%)" d="M 188.558594 187.800781 L 182.414062 193.945312 C 180.113281 196.246094 180.113281 199.976562 182.414062 202.277344 C 184.703125 204.578125 188.445312 204.578125 190.746094 202.277344 L 196.890625 196.132812 C 199.191406 193.828125 199.191406 190.089844 196.890625 187.800781 C 194.589844 185.5 190.859375 185.5 188.558594 187.800781 " fill-opacity="1" fill-rule="evenodd"/><path fill="rgb(21.179199%, 30.979919%, 41.958618%)" d="M 205.222656 204.460938 L 188.558594 221.125 C 186.257812 223.425781 186.257812 227.15625 188.558594 229.457031 C 190.859375 231.757812 194.589844 231.757812 196.890625 229.457031 L 213.554688 212.792969 C 215.855469 210.492188 215.855469 206.753906 213.554688 204.460938 C 211.25 202.160156 207.523438 202.160156 205.222656 204.460938 " fill-opacity="1" fill-rule="evenodd"/><path fill="rgb(21.179199%, 30.979919%, 41.958618%)" d="M 221.882812 221.125 L 205.222656 237.789062 C 202.921875 240.089844 202.921875 243.820312 205.222656 246.121094 C 207.523438 248.421875 211.25 248.421875 213.554688 246.121094 L 230.214844 229.457031 C 232.519531 227.15625 232.519531 223.425781 230.214844 221.125 C 227.925781 218.824219 224.1875 218.824219 221.882812 221.125 " fill-opacity="1" fill-rule="evenodd"/><path fill="rgb(21.179199%, 30.979919%, 41.958618%)" d="M 238.546875 237.789062 L 232.3125 244.027344 C 230.019531 246.328125 230.019531 250.054688 232.3125 252.355469 C 234.613281 254.660156 238.351562 254.660156 240.652344 252.355469 L 246.878906 246.121094 C 249.179688 243.820312 249.179688 240.089844 246.878906 237.789062 C 244.589844 235.488281 240.847656 235.488281 238.546875 237.789062 " fill-opacity="1" fill-rule="evenodd"/></svg>