<svg xmlns="http://www.w3.org/2000/svg" xmlns:xlink="http://www.w3.org/1999/xlink" width="500" zoomAndPan="magnify" viewBox="0 0 375 374.999991" height="500" preserveAspectRatio="xMidYMid meet" version="1.0"><defs><clipPath id="id1"><path d="M 65.039062 84.660156 L 302.789062 84.660156 L 302.789062 290.160156 L 65.039062 290.160156 Z M 65.039062 84.660156 " clip-rule="nonzero"/></clipPath><clipPath id="id2"><path d="M 99.152344 114.179688 L 268.652344 114.179688 L 268.652344 261.179688 L 99.152344 261.179688 Z M 99.152344 114.179688 " clip-rule="nonzero"/></clipPath><clipPath id="id3"><path d="M 167.683594 144 L 222 144 L 222 192 L 167.683594 192 Z M 167.683594 144 " clip-rule="nonzero"/></clipPath><clipPath id="id4"><path d="M 209 179 L 257 179 L 257 233.515625 L 209 233.515625 Z M 209 179 " clip-rule="nonzero"/></clipPath><clipPath id="id5"><path d="M 191 91.015625 L 310.183594 91.015625 L 310.183594 210 L 191 210 Z M 191 91.015625 " clip-rule="nonzero"/></clipPath><clipPath id="id6"><path d="M 167.683594 192 L 210 192 L 210 233.515625 L 167.683594 233.515625 Z M 167.683594 192 " clip-rule="nonzero"/></clipPath></defs><g clip-path="url(#id1)"><path fill="rgb(100%, 48.239136%, 16.468811%)" d="M 124.515625 290.160156 L 65.117188 187.410156 L 124.515625 84.660156 L 243.3125 84.660156 L 302.710938 187.410156 L 243.3125 290.160156 Z M 124.515625 290.160156 " fill-opacity="1" fill-rule="nonzero"/></g><g clip-path="url(#id2)"><path fill="rgb(100%, 100%, 100%)" d="M 141.550781 261.179688 L 99.203125 187.679688 L 141.550781 114.179688 L 226.25 114.179688 L 268.601562 187.679688 L 226.25 261.179688 Z M 141.550781 261.179688 " fill-opacity="1" fill-rule="nonzero"/></g><g clip-path="url(#id3)"><path fill="rgb(36.079407%, 88.238525%, 90.19928%)" d="M 220.65625 145.679688 L 220.121094 145.207031 C 219.558594 144.707031 218.902344 144.453125 218.152344 144.453125 C 171.144531 144.453125 167.71875 188.347656 167.683594 188.789062 C 167.664062 189.035156 167.679688 189.28125 167.726562 189.523438 C 167.773438 189.769531 167.847656 190.003906 167.953125 190.226562 C 168.054688 190.453125 168.1875 190.660156 168.34375 190.851562 C 168.5 191.046875 168.679688 191.214844 168.878906 191.363281 C 169.078125 191.511719 169.292969 191.632812 169.519531 191.726562 C 169.75 191.820312 169.988281 191.882812 170.234375 191.917969 C 170.480469 191.953125 170.726562 191.957031 170.972656 191.929688 C 171.21875 191.902344 171.457031 191.84375 171.691406 191.757812 L 195.441406 182.851562 C 196.066406 182.621094 196.558594 182.222656 196.917969 181.664062 C 204.183594 170.496094 212.1875 159.886719 220.929688 149.835938 C 221.183594 149.542969 221.371094 149.210938 221.496094 148.839844 C 221.621094 148.472656 221.667969 148.09375 221.644531 147.703125 C 221.617188 147.316406 221.519531 146.945312 221.347656 146.59375 C 221.179688 146.246094 220.945312 145.941406 220.65625 145.679688 Z M 220.65625 145.679688 " fill-opacity="1" fill-rule="nonzero"/></g><g clip-path="url(#id4)"><path fill="rgb(36.079407%, 88.238525%, 90.19928%)" d="M 255.992188 181.070312 L 255.515625 180.535156 C 255.253906 180.242188 254.949219 180.011719 254.601562 179.84375 C 254.25 179.671875 253.878906 179.574219 253.492188 179.550781 C 253.101562 179.523438 252.722656 179.574219 252.355469 179.699219 C 251.984375 179.824219 251.652344 180.011719 251.359375 180.265625 C 241.3125 189.007812 230.710938 197.011719 219.550781 204.277344 C 218.992188 204.636719 218.59375 205.128906 218.363281 205.75 L 209.457031 229.5 C 209.375 229.726562 209.316406 229.957031 209.289062 230.191406 C 209.261719 230.429688 209.261719 230.667969 209.289062 230.902344 C 209.320312 231.140625 209.375 231.371094 209.460938 231.59375 C 209.542969 231.820312 209.652344 232.027344 209.789062 232.226562 C 209.925781 232.421875 210.082031 232.601562 210.257812 232.761719 C 210.4375 232.917969 210.632812 233.054688 210.84375 233.167969 C 211.054688 233.28125 211.277344 233.363281 211.507812 233.425781 C 211.738281 233.484375 211.972656 233.511719 212.214844 233.515625 L 212.410156 233.515625 C 212.855469 233.515625 256.746094 230.058594 256.746094 183.046875 C 256.746094 182.292969 256.492188 181.632812 255.992188 181.070312 Z M 255.992188 181.070312 " fill-opacity="1" fill-rule="nonzero"/></g><g clip-path="url(#id5)"><path fill="rgb(45.098877%, 45.098877%, 45.098877%)" d="M 307.214844 91.015625 C 271.535156 91.015625 238.160156 120.886719 216.441406 145.953125 C 207.484375 156.222656 199.296875 167.070312 191.882812 178.503906 C 191.707031 178.789062 191.582031 179.09375 191.507812 179.421875 C 191.433594 179.75 191.414062 180.078125 191.453125 180.410156 C 191.492188 180.746094 191.585938 181.0625 191.730469 181.363281 C 191.875 181.667969 192.066406 181.9375 192.304688 182.171875 L 219.023438 208.890625 C 219.601562 209.472656 220.300781 209.761719 221.121094 209.765625 C 221.6875 209.765625 222.210938 209.617188 222.691406 209.3125 C 234.128906 201.902344 244.980469 193.714844 255.25 184.757812 C 280.304688 163.035156 310.183594 129.660156 310.183594 93.984375 C 310.183594 93.589844 310.105469 93.210938 309.957031 92.847656 C 309.804688 92.484375 309.589844 92.164062 309.3125 91.882812 C 309.035156 91.605469 308.710938 91.390625 308.347656 91.242188 C 307.984375 91.089844 307.605469 91.015625 307.214844 91.015625 Z M 307.214844 91.015625 " fill-opacity="1" fill-rule="nonzero"/></g><g clip-path="url(#id6)"><path fill="rgb(100%, 75.689697%, 2.749634%)" d="M 202.539062 198.757812 C 202.390625 198.609375 202.226562 198.480469 202.046875 198.371094 C 201.578125 197.769531 201.070312 197.203125 200.519531 196.671875 C 199.972656 196.144531 199.386719 195.65625 198.765625 195.210938 C 198.148438 194.765625 197.5 194.367188 196.820312 194.015625 C 196.144531 193.664062 195.445312 193.363281 194.726562 193.109375 C 194.003906 192.859375 193.269531 192.660156 192.519531 192.515625 C 191.773438 192.371094 191.015625 192.277344 190.253906 192.242188 C 189.492188 192.207031 188.730469 192.222656 187.972656 192.296875 C 187.210938 192.371094 186.460938 192.496094 185.71875 192.675781 C 172.199219 197.296875 168.128906 226.824219 167.683594 230.179688 C 167.660156 231.09375 167.980469 231.867188 168.636719 232.503906 C 169.324219 233.183594 170.152344 233.519531 171.121094 233.515625 C 174.46875 233.097656 203.984375 229.019531 208.621094 215.5 C 210.433594 210.222656 208.378906 204.597656 202.539062 198.757812 Z M 202.539062 198.757812 " fill-opacity="1" fill-rule="nonzero"/></g><path fill="rgb(36.079407%, 88.238525%, 90.19928%)" d="M 280.496094 138.515625 C 280.496094 139.097656 280.464844 139.679688 280.410156 140.261719 C 280.351562 140.839844 280.265625 141.417969 280.152344 141.988281 C 280.039062 142.5625 279.898438 143.128906 279.726562 143.683594 C 279.558594 144.242188 279.363281 144.792969 279.136719 145.332031 C 278.914062 145.871094 278.667969 146.398438 278.390625 146.910156 C 278.117188 147.425781 277.816406 147.925781 277.492188 148.410156 C 277.167969 148.894531 276.820312 149.363281 276.449219 149.816406 C 276.082031 150.265625 275.691406 150.699219 275.277344 151.109375 C 274.863281 151.523438 274.433594 151.914062 273.980469 152.285156 C 273.53125 152.652344 273.0625 153 272.578125 153.324219 C 272.09375 153.648438 271.59375 153.949219 271.078125 154.222656 C 270.5625 154.5 270.039062 154.75 269.5 154.972656 C 268.960938 155.195312 268.410156 155.390625 267.851562 155.558594 C 267.292969 155.730469 266.730469 155.871094 266.15625 155.984375 C 265.585938 156.097656 265.007812 156.183594 264.429688 156.242188 C 263.847656 156.296875 263.265625 156.328125 262.683594 156.328125 C 262.097656 156.328125 261.515625 156.296875 260.9375 156.242188 C 260.355469 156.183594 259.777344 156.097656 259.207031 155.984375 C 258.632812 155.871094 258.070312 155.730469 257.511719 155.558594 C 256.953125 155.390625 256.402344 155.195312 255.867188 154.972656 C 255.328125 154.75 254.800781 154.5 254.285156 154.222656 C 253.769531 153.949219 253.269531 153.648438 252.785156 153.324219 C 252.300781 153 251.832031 152.652344 251.382812 152.285156 C 250.929688 151.914062 250.5 151.523438 250.085938 151.109375 C 249.675781 150.699219 249.28125 150.265625 248.914062 149.816406 C 248.542969 149.363281 248.195312 148.894531 247.871094 148.410156 C 247.546875 147.925781 247.246094 147.425781 246.972656 146.910156 C 246.699219 146.398438 246.449219 145.871094 246.226562 145.332031 C 246.003906 144.792969 245.804688 144.242188 245.636719 143.683594 C 245.46875 143.128906 245.324219 142.5625 245.210938 141.988281 C 245.097656 141.417969 245.011719 140.839844 244.957031 140.261719 C 244.898438 139.679688 244.871094 139.097656 244.871094 138.515625 C 244.871094 137.929688 244.898438 137.347656 244.957031 136.769531 C 245.011719 136.1875 245.097656 135.613281 245.210938 135.039062 C 245.324219 134.46875 245.46875 133.902344 245.636719 133.34375 C 245.804688 132.785156 246.003906 132.238281 246.226562 131.699219 C 246.449219 131.160156 246.699219 130.632812 246.972656 130.117188 C 247.246094 129.605469 247.546875 129.105469 247.871094 128.617188 C 248.195312 128.132812 248.542969 127.664062 248.914062 127.214844 C 249.28125 126.765625 249.675781 126.332031 250.085938 125.917969 C 250.5 125.507812 250.929688 125.117188 251.382812 124.746094 C 251.832031 124.375 252.300781 124.027344 252.785156 123.703125 C 253.269531 123.378906 253.769531 123.082031 254.285156 122.804688 C 254.800781 122.53125 255.328125 122.28125 255.867188 122.058594 C 256.402344 121.835938 256.953125 121.636719 257.511719 121.46875 C 258.070312 121.300781 258.632812 121.160156 259.207031 121.042969 C 259.777344 120.929688 260.355469 120.84375 260.9375 120.789062 C 261.515625 120.730469 262.097656 120.703125 262.683594 120.703125 C 263.265625 120.703125 263.847656 120.730469 264.429688 120.789062 C 265.007812 120.84375 265.585938 120.929688 266.15625 121.042969 C 266.730469 121.160156 267.292969 121.300781 267.851562 121.46875 C 268.410156 121.636719 268.960938 121.835938 269.5 122.058594 C 270.039062 122.28125 270.5625 122.53125 271.078125 122.804688 C 271.59375 123.082031 272.09375 123.378906 272.578125 123.703125 C 273.0625 124.027344 273.53125 124.375 273.980469 124.746094 C 274.433594 125.117188 274.863281 125.507812 275.277344 125.917969 C 275.691406 126.332031 276.082031 126.765625 276.449219 127.214844 C 276.820312 127.664062 277.167969 128.132812 277.492188 128.617188 C 277.816406 129.105469 278.117188 129.605469 278.390625 130.117188 C 278.667969 130.632812 278.914062 131.160156 279.136719 131.699219 C 279.363281 132.238281 279.558594 132.785156 279.726562 133.34375 C 279.898438 133.902344 280.039062 134.46875 280.152344 135.039062 C 280.265625 135.613281 280.351562 136.1875 280.410156 136.769531 C 280.464844 137.347656 280.496094 137.929688 280.496094 138.515625 Z M 280.496094 138.515625 " fill-opacity="1" fill-rule="nonzero"/></svg>