<svg xmlns="http://www.w3.org/2000/svg" xmlns:xlink="http://www.w3.org/1999/xlink" width="500" zoomAndPan="magnify" viewBox="0 0 375 374.999991" height="500" preserveAspectRatio="xMidYMid meet" version="1.0"><defs><clipPath id="id1"><path d="M 54 37.03125 L 176 37.03125 L 176 135 L 54 135 Z M 54 37.03125 " clip-rule="nonzero"/></clipPath><clipPath id="id2"><path d="M 55 134 L 173 134 L 173 337.78125 L 55 337.78125 Z M 55 134 " clip-rule="nonzero"/></clipPath><clipPath id="id3"><path d="M 160 276 L 321 276 L 321 337.78125 L 160 337.78125 Z M 160 276 " clip-rule="nonzero"/></clipPath></defs><path fill="rgb(6.269836%, 5.879211%, 5.099487%)" d="M 315.554688 167.09375 L 223.117188 167.09375 L 223.117188 139.652344 C 223.117188 137.664062 221.5 136.042969 219.503906 136.042969 C 217.519531 136.042969 215.902344 137.664062 215.902344 139.652344 L 215.902344 286.710938 C 215.902344 288.699219 217.519531 290.320312 219.503906 290.320312 C 221.5 290.320312 223.117188 288.699219 223.117188 286.710938 L 223.117188 235.691406 L 315.554688 235.691406 L 315.554688 167.09375 " fill-opacity="1" fill-rule="nonzero"/><g clip-path="url(#id1)"><path fill="rgb(6.269836%, 5.879211%, 5.099487%)" d="M 143.976562 100.011719 C 141.324219 105.394531 134.730469 107.53125 129.472656 104.664062 C 125.363281 102.421875 120.214844 101.082031 114.628906 101.082031 C 109.042969 101.082031 103.902344 102.421875 99.792969 104.664062 C 94.546875 107.519531 87.964844 105.429688 85.3125 100.070312 C 83.164062 95.726562 81.945312 90.824219 81.945312 85.644531 C 81.945312 67.011719 97.578125 51.976562 116.386719 52.960938 C 133.355469 53.867188 147.050781 68.128906 147.308594 85.128906 C 147.390625 90.472656 146.183594 95.523438 143.976562 100.011719 Z M 170.828125 75.367188 L 162.144531 75.367188 L 162.144531 75.613281 C 157.53125 53.585938 138.015625 37.03125 114.628906 37.03125 C 91.332031 37.03125 71.875 53.457031 67.171875 75.367188 L 56.609375 75.367188 C 55.378906 75.367188 54.390625 76.363281 54.390625 77.585938 L 54.390625 93.691406 C 54.390625 94.914062 55.378906 95.914062 56.609375 95.914062 L 67.171875 95.914062 C 71.875 117.824219 91.332031 134.246094 114.628906 134.246094 C 138.015625 134.246094 157.53125 117.707031 162.144531 95.664062 L 162.144531 95.914062 L 171.953125 95.914062 C 173.996094 95.914062 175.636719 94.269531 175.636719 92.222656 L 175.636719 80.183594 C 175.636719 77.527344 173.480469 75.367188 170.828125 75.367188 " fill-opacity="1" fill-rule="nonzero"/></g><g clip-path="url(#id2)"><path fill="rgb(6.269836%, 5.879211%, 5.099487%)" d="M 165.136719 146.242188 L 151.101562 134.691406 C 140.796875 142.375 128.121094 146.898438 114.628906 146.898438 C 100.875 146.898438 87.941406 142.1875 77.53125 134.210938 L 62.886719 146.242188 C 57.910156 150.339844 55.023438 156.449219 55.023438 162.898438 L 55.023438 211.078125 C 55.023438 221.769531 63.6875 230.441406 74.363281 230.441406 L 80.429688 230.441406 L 80.429688 310.960938 C 57.863281 313.027344 60.257812 332.800781 60.257812 337.78125 L 167.953125 337.78125 C 167.953125 332.800781 170.355469 313.027344 147.789062 310.960938 L 147.789062 230.441406 L 153.660156 230.441406 C 164.335938 230.441406 172.996094 221.769531 172.996094 211.078125 L 172.996094 162.898438 C 172.996094 156.449219 170.109375 150.339844 165.136719 146.242188 " fill-opacity="1" fill-rule="nonzero"/></g><g clip-path="url(#id3)"><path fill="rgb(6.269836%, 5.879211%, 5.099487%)" d="M 160.476562 300.988281 C 170.898438 305.027344 181.257812 314.601562 180.613281 336.804688 C 180.601562 337.183594 180.589844 337.511719 180.589844 337.78125 L 320.566406 337.78125 C 320.566406 303.851562 275.328125 276.351562 219.503906 276.351562 C 197.476562 276.351562 177.082031 280.640625 160.476562 287.910156 L 160.476562 300.988281 " fill-opacity="1" fill-rule="nonzero"/></g></svg>