<svg xmlns="http://www.w3.org/2000/svg" xmlns:xlink="http://www.w3.org/1999/xlink" width="500" zoomAndPan="magnify" viewBox="0 0 375 374.999991" height="500" preserveAspectRatio="xMidYMid meet" version="1.0"><defs><clipPath id="id1"><path d="M 14 44.714844 L 373 44.714844 L 373 374.714844 L 14 374.714844 Z M 14 44.714844 " clip-rule="nonzero"/></clipPath></defs><g clip-path="url(#id1)"><path fill="rgb(100%, 100%, 100%)" d="M 274.917969 374.714844 L 62.761719 374.714844 C 35.414062 365.878906 16.46875 349.503906 14.136719 318.222656 C 15.761719 311.144531 17.191406 303.894531 17.664062 295.835938 C 20.203125 288.847656 15.347656 290.492188 17.277344 283.828125 C 18.867188 279.972656 30.894531 264.082031 33.976562 253.933594 C 36.167969 246.71875 39.792969 239.707031 42.132812 231.835938 C 42.972656 229.019531 41.214844 220.589844 42.132812 217.792969 C 43.5625 213.4375 48.304688 210.800781 49.800781 206.414062 C 55.8125 194.757812 59.164062 183.980469 62.761719 173.601562 C 64.679688 168.066406 61.984375 161.796875 62.761719 155.441406 C 65.113281 149.585938 72.960938 145.933594 75.476562 140.230469 C 78.03125 134.429688 81.410156 126.886719 83.605469 121.152344 C 85.199219 116.996094 86.257812 113.574219 86.753906 108.671875 C 89.015625 102.964844 85.195312 97.621094 86.753906 93.808594 C 88.917969 88.496094 94.515625 84.644531 96.933594 79.695312 C 101.527344 70.289062 104.519531 61.632812 109.652344 53.5 C 112.476562 49.023438 115.875 47.152344 121.640625 44.714844 C 129.640625 46.335938 137.566406 46.734375 145.347656 44.714844 L 312.140625 44.714844 C 340.226562 49.300781 343.277344 69.054688 332.964844 96.898438 L 274.734375 291.089844 C 266.332031 313.765625 261.285156 319.285156 237.03125 319.800781 L 46.972656 319.800781 C 27.460938 321.894531 43.957031 350.898438 68.457031 346.960938 L 269.027344 346.960938 C 280.777344 347.058594 288.039062 341.441406 290.191406 329.320312 L 354.433594 117.753906 L 354.433594 110.953125 C 366.769531 115.621094 375.0625 124.972656 372.070312 143.449219 C 359.84375 188.851562 332.84375 274.519531 312.140625 343.886719 C 303.144531 361.296875 290.554688 371.195312 274.917969 374.710938 Z M 122.878906 280.59375 C 126.078125 280.441406 200.070312 280.902344 189.023438 280.613281 C 188.003906 280.585938 189.484375 273.582031 189.023438 273.847656 C 173.523438 282.808594 220.117188 151.03125 220.34375 150.183594 C 221.46875 145.933594 218.195312 144.167969 216.523438 144.109375 C 208.800781 143.820312 184.757812 143.589844 174.296875 144.109375 C 172.269531 144.207031 161.683594 144.304688 159.527344 144.207031 C 159.539062 144.140625 159.539062 144.105469 159.527344 144.109375 C 158.980469 144.152344 159.042969 144.183594 159.527344 144.207031 C 159.304688 145.289062 155.578125 154.980469 155.871094 154.878906 C 188.535156 143.851562 133.949219 280.246094 124.980469 273.855469 C 123.085938 272.507812 123.570312 280.175781 122.878906 280.601562 C 122.773438 280.605469 122.746094 280.609375 122.804688 280.617188 C 122.832031 280.621094 122.855469 280.613281 122.878906 280.601562 Z M 224.285156 127.46875 C 209.976562 127.644531 197.089844 127.457031 183.800781 127.46875 C 180.300781 127.472656 176.425781 124.566406 177.464844 121.058594 C 181.664062 106.878906 183.410156 102.304688 188.429688 86.488281 C 189.722656 82.417969 192.355469 80.4375 194.769531 80.433594 C 209.882812 80.414062 222.304688 80.371094 235.25 80.433594 C 238.042969 80.449219 240.46875 81.546875 239.703125 85.296875 C 236.582031 100.585938 233.007812 107.894531 228.734375 123.808594 C 228.058594 126.332031 226.945312 127.4375 224.285156 127.46875 Z M 224.285156 127.46875 " fill-opacity="1" fill-rule="evenodd"/></g></svg>