<svg xmlns="http://www.w3.org/2000/svg" xmlns:xlink="http://www.w3.org/1999/xlink" width="500" zoomAndPan="magnify" viewBox="0 0 375 374.999991" height="500" preserveAspectRatio="xMidYMid meet" version="1.0"><defs><clipPath id="id1"><path d="M 0 24 L 375 24 L 375 353.054688 L 0 353.054688 Z M 0 24 " clip-rule="nonzero"/></clipPath></defs><g clip-path="url(#id1)"><path fill="rgb(100%, 100%, 100%)" d="M 195.300781 27.332031 C 191.769531 23.195312 184.710938 23.195312 181.160156 27.332031 C 179.972656 28.726562 159.183594 53.375 148.3125 79.773438 L 228.148438 79.773438 C 217.277344 53.375 196.488281 28.726562 195.300781 27.332031 Z M 383.28125 415.828125 C 383.316406 415.179688 383.316406 414.546875 383.316406 413.898438 C 383.316406 383.195312 358.308594 358.210938 327.582031 358.210938 C 309.28125 358.210938 292.746094 366.953125 282.472656 381.320312 C 279.292969 379.242188 275.671875 377.8125 271.84375 377.164062 L 271.84375 376.773438 C 271.84375 356.296875 255.179688 339.648438 234.6875 339.648438 C 231.046875 339.648438 227.460938 340.167969 224.023438 341.1875 C 221.570312 333.355469 219.75 326.449219 218.449219 321.085938 L 225.75 321.085938 C 230.878906 321.085938 235.039062 316.925781 235.039062 311.804688 C 235.039062 310.113281 234.59375 308.519531 233.792969 307.164062 L 227.867188 283.476562 C 231.769531 282.382812 234.6875 278.949219 234.6875 274.695312 L 234.6875 107.632812 C 234.6875 104.628906 234.074219 101.492188 233.535156 98.351562 L 142.945312 98.351562 C 142.40625 101.492188 141.792969 104.628906 141.792969 107.632812 L 141.792969 274.695312 C 141.792969 278.949219 144.710938 282.382812 148.609375 283.476562 L 142.089844 309.574219 C 141.382812 312.34375 142.015625 315.292969 143.78125 317.539062 C 145.546875 319.804688 148.238281 321.101562 151.101562 321.101562 L 158.03125 321.101562 C 156.730469 326.46875 154.929688 333.390625 152.457031 341.207031 C 149.019531 340.167969 145.433594 339.648438 141.792969 339.648438 C 121.300781 339.648438 104.636719 356.296875 104.636719 376.773438 L 104.636719 377.164062 C 100.808594 377.8125 97.203125 379.222656 94.007812 381.320312 C 83.734375 366.953125 67.199219 358.210938 48.898438 358.210938 C 18.167969 358.210938 -6.835938 383.195312 -6.835938 413.898438 C -6.835938 414.417969 -6.835938 414.957031 -6.820312 415.476562 C -17.652344 419.316406 -25.417969 429.636719 -25.417969 441.742188 C -25.417969 457.09375 -12.914062 469.585938 2.453125 469.585938 L 374.027344 469.585938 C 389.390625 469.585938 401.894531 457.09375 401.894531 441.742188 C 401.894531 429.878906 394.445312 419.726562 383.28125 415.828125 Z M 67.476562 413.898438 C 57.242188 413.898438 48.898438 422.230469 48.898438 432.460938 C 48.898438 437.582031 44.738281 441.742188 39.609375 441.742188 C 34.480469 441.742188 30.320312 437.582031 30.320312 432.460938 C 30.320312 411.984375 46.984375 395.335938 67.476562 395.335938 C 72.605469 395.335938 76.765625 399.492188 76.765625 404.617188 C 76.765625 409.738281 72.605469 413.898438 67.476562 413.898438 Z M 188.238281 154.023438 C 193.367188 154.023438 197.527344 158.179688 197.527344 163.304688 C 197.527344 168.425781 193.367188 172.585938 188.238281 172.585938 C 183.113281 172.585938 178.949219 168.425781 178.949219 163.304688 C 178.949219 158.179688 183.113281 154.023438 188.238281 154.023438 Z M 167.636719 283.960938 L 208.863281 283.960938 L 213.507812 302.523438 L 162.992188 302.523438 Z M 158.886719 413.988281 C 156.359375 418.445312 150.691406 420.003906 146.214844 417.480469 C 142.070312 415.140625 137.316406 413.898438 132.503906 413.898438 C 117.136719 413.898438 104.636719 426.390625 104.636719 441.742188 C 104.636719 446.863281 100.472656 451.023438 95.34375 451.023438 C 90.21875 451.023438 86.054688 446.863281 86.054688 441.742188 C 86.054688 416.160156 106.902344 395.335938 132.503906 395.335938 C 140.527344 395.335938 148.425781 397.414062 155.375 401.347656 C 159.851562 403.875 161.410156 409.535156 158.886719 413.988281 Z M 156.339844 378.089844 C 153.960938 373.542969 155.707031 367.9375 160.261719 365.5625 C 178.691406 355.925781 201.96875 355.945312 220.398438 365.5625 C 224.953125 367.9375 226.699219 373.542969 224.339844 378.089844 C 222.683594 381.265625 219.433594 383.082031 216.089844 383.082031 C 214.640625 383.082031 213.171875 382.75 211.796875 382.027344 C 198.457031 375.066406 182.164062 375.066406 168.863281 382.027344 C 164.308594 384.402344 158.71875 382.621094 156.339844 378.089844 Z M 225.398438 451.023438 C 220.269531 451.023438 216.109375 446.863281 216.109375 441.742188 C 216.109375 436.617188 211.945312 432.460938 206.820312 432.460938 C 201.691406 432.460938 197.527344 436.617188 197.527344 441.742188 C 197.527344 446.863281 193.367188 451.023438 188.238281 451.023438 C 183.113281 451.023438 178.949219 446.863281 178.949219 441.742188 C 178.949219 426.390625 191.453125 413.898438 206.820312 413.898438 C 222.183594 413.898438 234.6875 426.390625 234.6875 441.742188 C 234.6875 446.863281 230.523438 451.023438 225.398438 451.023438 Z M 280.855469 451.023438 C 275.726562 451.023438 271.566406 446.863281 271.566406 441.742188 C 271.566406 426.390625 259.0625 413.898438 243.699219 413.898438 C 238.570312 413.898438 234.40625 409.738281 234.40625 404.617188 C 234.40625 399.492188 238.570312 395.335938 243.699219 395.335938 C 269.300781 395.335938 290.144531 416.160156 290.144531 441.742188 C 290.144531 446.863281 285.984375 451.023438 280.855469 451.023438 Z M 336.871094 441.742188 C 331.742188 441.742188 327.582031 437.582031 327.582031 432.460938 C 327.582031 422.230469 319.238281 413.898438 309 413.898438 C 303.875 413.898438 299.710938 409.738281 299.710938 404.617188 C 299.710938 399.492188 303.875 395.335938 309 395.335938 C 329.496094 395.335938 346.160156 411.984375 346.160156 432.460938 C 346.160156 437.582031 341.996094 441.742188 336.871094 441.742188 Z M 272.53125 315.292969 C 273.980469 318.839844 277.417969 321.085938 281.132812 321.085938 C 281.726562 321.085938 282.324219 321.027344 282.917969 320.917969 C 287.285156 320.0625 290.421875 316.257812 290.421875 311.804688 C 290.421875 278.058594 283.101562 247.335938 270.375 227.492188 C 268.148438 224.023438 263.875 222.445312 259.933594 223.59375 C 255.976562 224.765625 253.265625 228.382812 253.265625 232.503906 L 253.265625 274.679688 C 253.265625 276.535156 253.0625 278.355469 252.707031 280.097656 C 252.09375 283.144531 253.042969 286.28125 255.234375 288.46875 C 262.3125 295.578125 268.296875 304.859375 272.53125 315.292969 Z M 93.5625 320.917969 C 94.15625 321.027344 94.75 321.085938 95.34375 321.085938 C 99.0625 321.085938 102.5 318.839844 103.949219 315.292969 C 108.183594 304.859375 114.164062 295.578125 121.246094 288.488281 C 123.4375 286.296875 124.367188 283.144531 123.769531 280.117188 C 123.417969 278.355469 123.214844 276.535156 123.214844 274.679688 L 123.214844 232.503906 C 123.214844 228.382812 120.5 224.765625 116.542969 223.59375 C 112.605469 222.425781 108.351562 224.003906 106.101562 227.492188 C 93.375 247.335938 86.054688 278.058594 86.054688 311.804688 C 86.054688 316.238281 89.195312 320.0625 93.5625 320.917969 Z M 93.5625 320.917969 " fill-opacity="1" fill-rule="nonzero"/></g></svg>