<svg xmlns="http://www.w3.org/2000/svg" xmlns:xlink="http://www.w3.org/1999/xlink" width="500" zoomAndPan="magnify" viewBox="0 0 375 374.999991" height="500" preserveAspectRatio="xMidYMid meet" version="1.0"><defs><clipPath id="id1"><path d="M 37.5 26.921875 L 358.5 26.921875 L 358.5 347.921875 L 37.5 347.921875 Z M 37.5 26.921875 " clip-rule="nonzero"/></clipPath></defs><g clip-path="url(#id1)"><path fill="rgb(100%, 100%, 100%)" d="M 76.019531 26.921875 C 63.714844 26.921875 53.667969 31.765625 47.140625 39.109375 C 40.617188 46.453125 37.5 55.992188 37.5 65.441406 C 37.5 74.894531 40.617188 84.429688 47.140625 91.773438 C 53.667969 99.117188 63.714844 103.960938 76.019531 103.960938 C 84.273438 103.960938 91.527344 100.773438 97.8125 96.3125 L 148.972656 147.472656 C 139.949219 158.53125 133.800781 172.078125 133.800781 187.421875 C 133.800781 200.085938 138.445312 211.226562 144.808594 221.191406 L 101.472656 255.320312 C 94.648438 249.203125 85.859375 245.203125 76.019531 245.203125 C 63.714844 245.203125 53.667969 250.046875 47.140625 257.390625 C 40.617188 264.730469 37.5 274.269531 37.5 283.722656 C 37.5 293.171875 40.617188 302.710938 47.140625 310.054688 C 53.667969 317.394531 63.714844 322.242188 76.019531 322.242188 C 97.21875 322.242188 114.539062 304.917969 114.539062 283.722656 C 114.539062 277.011719 112.34375 271.011719 109.296875 265.503906 L 152.007812 231.859375 C 163.691406 243.957031 179.90625 251.621094 198 251.621094 C 206.484375 251.621094 214.511719 249.777344 221.9375 246.769531 L 239.003906 278.96875 C 237.132812 280.371094 234.832031 281.371094 233.324219 283.070312 C 226.796875 290.414062 223.679688 299.949219 223.679688 309.402344 C 223.679688 318.855469 226.796875 328.390625 233.324219 335.734375 C 239.847656 343.078125 249.894531 347.921875 262.199219 347.921875 C 283.398438 347.921875 300.71875 330.601562 300.71875 309.402344 C 300.71875 288.203125 283.398438 270.882812 262.199219 270.882812 C 257.863281 270.882812 254.21875 272.125 250.5 273.226562 L 232.832031 239.898438 C 244.726562 231.960938 253.730469 220.804688 258.25 206.957031 L 281.671875 211.808594 C 281.660156 212.246094 281.460938 212.664062 281.460938 213.101562 C 281.460938 222.554688 284.574219 232.089844 291.101562 239.433594 C 297.628906 246.777344 307.675781 251.621094 319.980469 251.621094 C 341.179688 251.621094 358.5 234.300781 358.5 213.101562 C 358.5 191.902344 341.179688 174.582031 319.980469 174.582031 C 307.675781 174.582031 297.628906 179.425781 291.101562 186.769531 C 287.835938 190.445312 285.425781 194.667969 283.828125 199.160156 L 260.796875 194.367188 C 261.066406 191.976562 262.199219 189.882812 262.199219 187.421875 C 262.199219 162.183594 247.199219 140.777344 225.949219 130.292969 L 236.257812 102.621094 C 238.539062 102.992188 240.464844 103.960938 242.941406 103.960938 C 264.136719 103.960938 281.460938 86.640625 281.460938 65.441406 C 281.460938 44.242188 264.136719 26.921875 242.941406 26.921875 C 230.636719 26.921875 220.589844 31.765625 214.0625 39.109375 C 207.535156 46.453125 204.421875 55.992188 204.421875 65.441406 C 204.421875 74.894531 207.535156 84.429688 214.0625 91.773438 C 216.691406 94.734375 220.265625 96.914062 223.957031 98.910156 L 213.6875 126.394531 C 208.535156 125.058594 203.558594 123.222656 198 123.222656 C 182.65625 123.222656 169.109375 129.371094 158.050781 138.394531 L 106.890625 87.234375 C 111.351562 80.949219 114.539062 73.695312 114.539062 65.441406 C 114.539062 44.242188 97.21875 26.921875 76.019531 26.921875 Z M 76.019531 39.761719 C 90.277344 39.761719 101.699219 51.183594 101.699219 65.441406 C 101.699219 72.042969 99.0625 77.886719 95.015625 82.417969 C 94.1875 82.9375 93.507812 83.609375 92.984375 84.4375 C 88.453125 88.480469 82.617188 91.121094 76.019531 91.121094 C 66.925781 91.121094 60.921875 87.941406 56.746094 83.246094 C 52.574219 78.550781 50.339844 72.039062 50.339844 65.441406 C 50.339844 58.84375 52.574219 52.332031 56.746094 47.636719 C 60.921875 42.941406 66.925781 39.761719 76.019531 39.761719 Z M 242.941406 39.761719 C 257.199219 39.761719 268.621094 51.183594 268.621094 65.441406 C 268.621094 79.699219 257.199219 91.121094 242.941406 91.121094 C 239.433594 91.121094 236.746094 90.292969 234.085938 89.441406 C 233.550781 89.265625 232.996094 89.160156 232.433594 89.128906 C 228.886719 87.738281 225.933594 85.792969 223.667969 83.246094 C 219.492188 78.550781 217.261719 72.039062 217.261719 65.441406 C 217.261719 58.84375 219.492188 52.332031 223.667969 47.636719 C 227.839844 42.941406 233.84375 39.761719 242.941406 39.761719 Z M 198 136.0625 C 204.292969 136.0625 210.15625 137.570312 215.71875 139.621094 C 216.316406 139.839844 216.9375 139.964844 217.574219 140 C 217.582031 140 217.589844 140 217.597656 140 C 236.253906 147.683594 249.359375 165.9375 249.359375 187.421875 C 249.359375 215.863281 226.441406 238.78125 198 238.78125 C 169.558594 238.78125 146.640625 215.863281 146.640625 187.421875 C 146.640625 158.980469 169.558594 136.0625 198 136.0625 Z M 319.980469 187.421875 C 334.238281 187.421875 345.660156 198.84375 345.660156 213.101562 C 345.660156 227.359375 334.238281 238.78125 319.980469 238.78125 C 310.886719 238.78125 304.878906 235.601562 300.707031 230.90625 C 296.535156 226.210938 294.300781 219.699219 294.300781 213.101562 C 294.300781 206.503906 296.535156 199.992188 300.707031 195.296875 C 304.878906 190.601562 310.886719 187.421875 319.980469 187.421875 Z M 76.019531 258.042969 C 90.277344 258.042969 101.699219 269.464844 101.699219 283.722656 C 101.699219 297.980469 90.277344 309.402344 76.019531 309.402344 C 66.925781 309.402344 60.921875 306.222656 56.746094 301.527344 C 52.574219 296.832031 50.339844 290.320312 50.339844 283.722656 C 50.339844 277.125 52.574219 270.613281 56.746094 265.917969 C 60.921875 261.222656 66.925781 258.042969 76.019531 258.042969 Z M 262.199219 283.722656 C 276.457031 283.722656 287.878906 295.144531 287.878906 309.402344 C 287.878906 323.660156 276.457031 335.082031 262.199219 335.082031 C 253.105469 335.082031 247.101562 331.902344 242.925781 327.207031 C 238.753906 322.511719 236.519531 316 236.519531 309.402344 C 236.519531 302.804688 238.753906 296.292969 242.925781 291.597656 C 244.402344 289.9375 246.441406 288.777344 248.433594 287.570312 C 249.894531 287.351562 251.128906 286.703125 252.144531 285.628906 C 255.046875 284.546875 258.21875 283.722656 262.199219 283.722656 Z M 262.199219 283.722656 " fill-opacity="1" fill-rule="nonzero"/></g></svg>