<svg xmlns="http://www.w3.org/2000/svg" xmlns:xlink="http://www.w3.org/1999/xlink" width="500" zoomAndPan="magnify" viewBox="0 0 375 374.999991" height="500" preserveAspectRatio="xMidYMid meet" version="1.0"><defs><clipPath id="id1"><path d="M 18.75 37.5 L 356.25 37.5 L 356.25 375 L 18.75 375 Z M 18.75 37.5 " clip-rule="nonzero"/></clipPath></defs><g clip-path="url(#id1)"><path fill="rgb(100%, 100%, 100%)" d="M 322.5 37.5 L 52.5 37.5 C 33.851562 37.5 18.917969 52.601562 18.917969 71.25 L 18.75 375 L 86.25 307.5 L 322.5 307.5 C 341.148438 307.5 356.25 292.398438 356.25 273.75 L 356.25 71.25 C 356.25 52.601562 341.148438 37.5 322.5 37.5 Z M 288.75 240 L 221.25 186 L 221.25 240 L 86.25 240 L 86.25 105 L 221.25 105 L 221.25 159 L 288.75 105 Z M 288.75 240 " fill-opacity="1" fill-rule="nonzero"/></g></svg>