<svg xmlns="http://www.w3.org/2000/svg" xmlns:xlink="http://www.w3.org/1999/xlink" width="500" zoomAndPan="magnify" viewBox="0 0 375 374.999991" height="500" preserveAspectRatio="xMidYMid meet" version="1.0"><defs><clipPath id="id1"><path d="M 51 144.003906 L 321 144.003906 L 321 374.925781 L 51 374.925781 Z M 51 144.003906 " clip-rule="nonzero"/></clipPath><clipPath id="id2"><path d="M 171 144.003906 L 214 144.003906 L 214 149 L 171 149 Z M 171 144.003906 " clip-rule="nonzero"/></clipPath><clipPath id="id3"><path d="M 209.035156 31.671875 L 238.285156 31.671875 L 238.285156 60.921875 L 209.035156 60.921875 Z M 209.035156 31.671875 " clip-rule="nonzero"/></clipPath><clipPath id="id4"><path d="M 169.484375 61.140625 L 192.734375 61.140625 L 192.734375 85.890625 L 169.484375 85.890625 Z M 169.484375 61.140625 " clip-rule="nonzero"/></clipPath><clipPath id="id5"><path d="M 129.433594 82.050781 L 154.933594 82.050781 L 154.933594 109.050781 L 129.433594 109.050781 Z M 129.433594 82.050781 " clip-rule="nonzero"/></clipPath><clipPath id="id6"><path d="M 220.710938 85.960938 L 263.460938 85.960938 L 263.460938 121.210938 L 220.710938 121.210938 Z M 220.710938 85.960938 " clip-rule="nonzero"/></clipPath><clipPath id="id7"><path d="M 169.484375 109.371094 L 209.234375 109.371094 L 209.234375 149.871094 L 169.484375 149.871094 Z M 169.484375 109.371094 " clip-rule="nonzero"/></clipPath></defs><g clip-path="url(#id1)"><path fill="rgb(100%, 100%, 100%)" d="M 299.632812 180.585938 C 299.089844 181 298.597656 181.46875 298.152344 181.992188 C 297.710938 182.511719 297.328125 183.074219 297.003906 183.679688 C 296.679688 184.28125 296.425781 184.910156 296.238281 185.570312 C 296.046875 186.226562 295.929688 186.898438 295.886719 187.582031 C 295.839844 188.261719 295.867188 188.941406 295.964844 189.621094 C 296.066406 190.296875 296.234375 190.957031 296.476562 191.597656 C 296.714844 192.238281 297.023438 192.84375 297.390625 193.421875 C 297.761719 193.996094 298.1875 194.527344 298.671875 195.011719 C 299.582031 195.914062 300.28125 196.957031 300.773438 198.140625 C 301.265625 199.324219 301.511719 200.554688 301.511719 201.835938 C 301.507812 202.4375 301.414062 203.027344 301.230469 203.597656 C 301.042969 204.171875 300.777344 204.699219 300.425781 205.1875 C 300.074219 205.675781 299.65625 206.101562 299.171875 206.457031 C 298.691406 206.816406 298.164062 207.09375 297.59375 207.285156 C 297.023438 207.480469 296.4375 207.582031 295.835938 207.589844 C 295.234375 207.601562 294.644531 207.519531 294.070312 207.347656 C 293.496094 207.171875 292.957031 206.914062 292.464844 206.574219 C 291.96875 206.230469 291.535156 205.824219 291.167969 205.347656 C 270.390625 180.105469 235.375 163.375 195.691406 163.375 L 194.441406 163.375 C 191.480469 163.421875 188.558594 163.105469 185.675781 162.421875 C 182.792969 161.738281 180.039062 160.710938 177.414062 159.335938 L 168.949219 154.765625 C 161.894531 151.261719 154.53125 148.613281 146.863281 146.816406 C 139.195312 145.023438 131.421875 144.128906 123.542969 144.140625 L 110.796875 144.140625 C 109.789062 144.144531 108.800781 144.277344 107.832031 144.550781 C 106.859375 144.820312 105.945312 145.210938 105.078125 145.730469 C 104.214844 146.25 103.4375 146.871094 102.742188 147.601562 C 102.046875 148.328125 101.460938 149.136719 100.984375 150.023438 C 100.511719 150.914062 100.160156 151.847656 99.9375 152.828125 C 99.714844 153.8125 99.628906 154.804688 99.675781 155.808594 C 99.71875 156.816406 99.898438 157.796875 100.210938 158.753906 C 100.523438 159.710938 100.957031 160.609375 101.515625 161.449219 L 113.921875 180.105469 C 114.261719 180.613281 114.550781 181.152344 114.789062 181.714844 C 115.03125 182.273438 115.21875 182.855469 115.355469 183.449219 C 115.488281 184.046875 115.570312 184.648438 115.597656 185.261719 C 115.625 185.871094 115.59375 186.480469 115.511719 187.085938 C 115.429688 187.691406 115.292969 188.285156 115.101562 188.863281 C 114.910156 189.445312 114.667969 190.003906 114.378906 190.542969 C 114.085938 191.078125 113.75 191.585938 113.363281 192.0625 C 112.980469 192.539062 112.558594 192.976562 112.097656 193.375 C 105.867188 198.832031 100.382812 204.953125 95.644531 211.742188 C 94.703125 213.167969 93.605469 214.457031 92.347656 215.609375 C 91.085938 216.765625 89.707031 217.746094 88.203125 218.5625 C 86.703125 219.375 85.125 219.992188 83.46875 220.417969 C 81.816406 220.84375 80.132812 221.058594 78.425781 221.070312 L 70.347656 221.070312 C 69.726562 221.066406 69.105469 221.097656 68.488281 221.15625 C 67.867188 221.214844 67.253906 221.304688 66.644531 221.425781 C 66.035156 221.546875 65.433594 221.695312 64.839844 221.875 C 64.246094 222.054688 63.660156 222.261719 63.085938 222.5 C 62.511719 222.734375 61.949219 223 61.402344 223.292969 C 60.855469 223.585938 60.324219 223.902344 59.804688 224.246094 C 59.289062 224.59375 58.789062 224.960938 58.308594 225.355469 C 57.832031 225.75 57.371094 226.164062 56.929688 226.605469 C 56.492188 227.042969 56.074219 227.503906 55.683594 227.984375 C 55.289062 228.460938 54.917969 228.960938 54.574219 229.476562 C 54.230469 229.992188 53.910156 230.527344 53.617188 231.074219 C 53.324219 231.621094 53.0625 232.183594 52.824219 232.757812 C 52.585938 233.332031 52.378906 233.914062 52.199219 234.507812 C 52.019531 235.101562 51.871094 235.703125 51.75 236.3125 C 51.632812 236.921875 51.542969 237.535156 51.480469 238.15625 C 51.421875 238.773438 51.394531 239.390625 51.394531 240.011719 L 51.394531 256.359375 C 51.390625 257.308594 51.453125 258.246094 51.585938 259.183594 C 51.722656 260.121094 51.921875 261.042969 52.191406 261.949219 C 52.460938 262.855469 52.796875 263.738281 53.195312 264.597656 C 53.597656 265.453125 54.058594 266.277344 54.578125 267.066406 C 55.101562 267.855469 55.675781 268.601562 56.308594 269.308594 C 56.941406 270.011719 57.621094 270.667969 58.351562 271.269531 C 59.078125 271.875 59.847656 272.421875 60.65625 272.914062 C 61.464844 273.402344 62.304688 273.832031 63.179688 274.199219 L 64.71875 274.871094 C 67.390625 275.976562 69.949219 277.304688 72.394531 278.851562 C 74.839844 280.398438 77.132812 282.140625 79.273438 284.082031 C 81.417969 286.027344 83.378906 288.136719 85.160156 290.417969 C 86.941406 292.695312 88.511719 295.109375 89.875 297.660156 C 93.855469 305.109375 98.699219 311.953125 104.398438 318.1875 C 110.097656 324.421875 116.480469 329.855469 123.542969 334.492188 C 124.3125 335.03125 125.003906 335.65625 125.617188 336.367188 C 126.230469 337.074219 126.746094 337.851562 127.164062 338.691406 C 127.585938 339.53125 127.894531 340.40625 128.097656 341.324219 C 128.296875 342.242188 128.382812 343.167969 128.351562 344.105469 L 128.351562 360.503906 C 128.304688 361.382812 128.339844 362.261719 128.457031 363.136719 C 128.578125 364.011719 128.78125 364.863281 129.066406 365.699219 C 129.351562 366.535156 129.714844 367.335938 130.152344 368.101562 C 130.59375 368.867188 131.101562 369.582031 131.679688 370.25 C 132.257812 370.917969 132.894531 371.523438 133.589844 372.066406 C 134.285156 372.609375 135.027344 373.082031 135.8125 373.484375 C 136.601562 373.882812 137.417969 374.207031 138.265625 374.449219 C 139.117188 374.691406 139.980469 374.851562 140.859375 374.925781 L 161.300781 374.925781 C 161.949219 374.902344 162.589844 374.828125 163.222656 374.703125 C 163.859375 374.578125 164.480469 374.40625 165.089844 374.1875 C 165.699219 373.96875 166.289062 373.703125 166.855469 373.390625 C 167.425781 373.082031 167.964844 372.730469 168.480469 372.335938 C 168.992188 371.941406 169.472656 371.511719 169.921875 371.042969 C 170.367188 370.578125 170.777344 370.078125 171.148438 369.546875 C 171.515625 369.015625 171.84375 368.460938 172.128906 367.878906 C 172.414062 367.296875 172.652344 366.699219 172.84375 366.078125 L 174.671875 361.273438 C 175 360.347656 175.46875 359.503906 176.078125 358.734375 C 176.683594 357.964844 177.398438 357.316406 178.21875 356.78125 C 179.039062 356.246094 179.925781 355.859375 180.875 355.613281 C 181.824219 355.371094 182.785156 355.285156 183.761719 355.359375 C 187.707031 355.695312 191.652344 355.886719 195.691406 355.886719 C 202.984375 355.894531 210.230469 355.332031 217.433594 354.203125 C 217.882812 354.136719 218.332031 354.121094 218.78125 354.152344 C 219.234375 354.183594 219.679688 354.261719 220.113281 354.390625 C 220.546875 354.519531 220.960938 354.695312 221.359375 354.914062 C 221.753906 355.132812 222.121094 355.394531 222.460938 355.695312 C 222.800781 355.996094 223.101562 356.328125 223.371094 356.695312 C 223.636719 357.058594 223.859375 357.453125 224.039062 357.867188 C 224.21875 358.28125 224.355469 358.710938 224.441406 359.15625 C 224.527344 359.601562 224.5625 360.050781 224.550781 360.503906 C 224.5 361.382812 224.535156 362.261719 224.65625 363.136719 C 224.777344 364.011719 224.980469 364.863281 225.265625 365.699219 C 225.550781 366.535156 225.910156 367.335938 226.351562 368.101562 C 226.792969 368.867188 227.300781 369.582031 227.878906 370.25 C 228.457031 370.917969 229.09375 371.523438 229.789062 372.066406 C 230.484375 372.609375 231.226562 373.082031 232.011719 373.484375 C 232.796875 373.882812 233.617188 374.207031 234.464844 374.449219 C 235.3125 374.691406 236.175781 374.851562 237.058594 374.925781 L 257.5 374.925781 C 258.144531 374.902344 258.789062 374.828125 259.421875 374.703125 C 260.058594 374.578125 260.679688 374.40625 261.289062 374.1875 C 261.898438 373.96875 262.488281 373.703125 263.054688 373.390625 C 263.621094 373.082031 264.164062 372.730469 264.675781 372.335938 C 265.191406 371.941406 265.671875 371.511719 266.117188 371.042969 C 266.566406 370.578125 266.976562 370.078125 267.34375 369.546875 C 267.714844 369.015625 268.042969 368.460938 268.328125 367.878906 C 268.613281 367.296875 268.851562 366.699219 269.042969 366.078125 L 300.835938 299.25 C 302.359375 296.417969 303.738281 293.515625 304.972656 290.546875 L 305.214844 290.066406 C 306.890625 285.9375 308.21875 281.699219 309.199219 277.351562 C 310.175781 273.003906 310.792969 268.605469 311.046875 264.15625 C 311.300781 259.707031 311.1875 255.269531 310.710938 250.835938 C 310.230469 246.40625 309.394531 242.046875 308.195312 237.753906 C 307.824219 236.371094 307.644531 234.964844 307.644531 233.53125 C 307.648438 232.101562 307.839844 230.695312 308.214844 229.316406 C 308.589844 227.933594 309.140625 226.625 309.863281 225.390625 C 310.585938 224.15625 311.457031 223.035156 312.476562 222.03125 C 313.117188 221.378906 313.726562 220.699219 314.304688 219.992188 C 314.878906 219.28125 315.421875 218.546875 315.925781 217.789062 C 316.433594 217.027344 316.902344 216.246094 317.335938 215.441406 C 317.769531 214.636719 318.160156 213.8125 318.515625 212.96875 C 318.867188 212.128906 319.183594 211.269531 319.453125 210.398438 C 319.726562 209.527344 319.957031 208.644531 320.148438 207.75 C 320.335938 206.859375 320.480469 205.957031 320.585938 205.050781 C 320.6875 204.140625 320.746094 203.230469 320.765625 202.316406 C 320.78125 201.40625 320.753906 200.492188 320.683594 199.582031 C 320.613281 198.671875 320.5 197.765625 320.34375 196.867188 C 320.1875 195.964844 319.988281 195.074219 319.75 194.195312 C 319.507812 193.3125 319.226562 192.445312 318.902344 191.589844 C 318.582031 190.738281 318.21875 189.898438 317.816406 189.078125 C 317.410156 188.257812 316.972656 187.460938 316.492188 186.683594 C 316.015625 185.902344 315.5 185.152344 314.949219 184.421875 C 314.398438 183.691406 313.816406 182.992188 313.199219 182.316406 C 312.792969 181.839844 312.34375 181.402344 311.859375 181.007812 C 311.371094 180.613281 310.851562 180.265625 310.300781 179.96875 C 309.75 179.671875 309.175781 179.425781 308.578125 179.234375 C 307.984375 179.039062 307.375 178.90625 306.75 178.824219 C 306.128906 178.746094 305.503906 178.722656 304.878906 178.761719 C 304.253906 178.796875 303.636719 178.890625 303.027344 179.039062 C 302.417969 179.191406 301.828125 179.394531 301.257812 179.65625 C 300.6875 179.914062 300.148438 180.226562 299.632812 180.585938 Z M 127.390625 239.964844 C 126.757812 239.964844 126.132812 239.902344 125.515625 239.78125 C 124.894531 239.65625 124.292969 239.476562 123.710938 239.234375 C 123.125 238.992188 122.570312 238.695312 122.046875 238.34375 C 121.523438 237.992188 121.035156 237.59375 120.589844 237.148438 C 120.140625 236.703125 119.742188 236.214844 119.394531 235.691406 C 119.042969 235.167969 118.746094 234.613281 118.503906 234.027344 C 118.261719 233.445312 118.078125 232.84375 117.957031 232.226562 C 117.832031 231.605469 117.773438 230.980469 117.773438 230.347656 C 117.773438 229.71875 117.832031 229.09375 117.957031 228.472656 C 118.078125 227.855469 118.261719 227.253906 118.503906 226.667969 C 118.746094 226.085938 119.042969 225.53125 119.394531 225.007812 C 119.742188 224.480469 120.140625 223.996094 120.589844 223.550781 C 121.035156 223.101562 121.523438 222.703125 122.046875 222.355469 C 122.570312 222.003906 123.125 221.707031 123.710938 221.464844 C 124.292969 221.222656 124.894531 221.039062 125.515625 220.917969 C 126.132812 220.792969 126.757812 220.734375 127.390625 220.734375 C 128.023438 220.734375 128.648438 220.792969 129.269531 220.917969 C 129.886719 221.039062 130.488281 221.222656 131.074219 221.464844 C 131.65625 221.707031 132.210938 222.003906 132.734375 222.355469 C 133.261719 222.703125 133.746094 223.101562 134.195312 223.550781 C 134.640625 223.996094 135.039062 224.480469 135.390625 225.007812 C 135.742188 225.53125 136.039062 226.085938 136.277344 226.667969 C 136.519531 227.253906 136.703125 227.855469 136.828125 228.472656 C 136.949219 229.09375 137.011719 229.71875 137.011719 230.347656 C 137.011719 230.980469 136.949219 231.605469 136.828125 232.226562 C 136.703125 232.84375 136.519531 233.445312 136.277344 234.027344 C 136.039062 234.613281 135.742188 235.167969 135.390625 235.691406 C 135.039062 236.214844 134.640625 236.703125 134.195312 237.148438 C 133.746094 237.59375 133.261719 237.992188 132.734375 238.34375 C 132.210938 238.695312 131.65625 238.992188 131.074219 239.234375 C 130.488281 239.476562 129.886719 239.65625 129.269531 239.78125 C 128.648438 239.902344 128.023438 239.964844 127.390625 239.964844 Z M 231.957031 195.828125 C 231.847656 196.363281 231.691406 196.882812 231.488281 197.390625 C 231.289062 197.898438 231.046875 198.386719 230.761719 198.855469 C 230.476562 199.320312 230.15625 199.761719 229.796875 200.171875 C 229.4375 200.585938 229.046875 200.964844 228.621094 201.308594 C 228.199219 201.652344 227.75 201.960938 227.273438 202.230469 C 226.796875 202.5 226.300781 202.726562 225.785156 202.910156 C 225.273438 203.09375 224.746094 203.234375 224.207031 203.328125 C 223.667969 203.421875 223.125 203.46875 222.578125 203.472656 C 221.921875 203.546875 221.265625 203.546875 220.605469 203.472656 C 212.304688 201.5625 203.890625 200.542969 195.371094 200.414062 C 186.851562 200.285156 178.414062 201.046875 170.054688 202.703125 C 169.425781 202.878906 168.785156 202.992188 168.132812 203.035156 C 167.476562 203.082031 166.828125 203.0625 166.179688 202.972656 C 165.53125 202.886719 164.898438 202.734375 164.28125 202.519531 C 163.660156 202.300781 163.074219 202.027344 162.511719 201.691406 C 161.949219 201.351562 161.429688 200.964844 160.949219 200.519531 C 160.464844 200.078125 160.035156 199.589844 159.652344 199.058594 C 159.269531 198.527344 158.945312 197.964844 158.675781 197.367188 C 158.410156 196.769531 158.207031 196.152344 158.066406 195.515625 C 157.925781 194.875 157.851562 194.230469 157.839844 193.574219 C 157.832031 192.921875 157.890625 192.273438 158.011719 191.628906 C 158.136719 190.988281 158.324219 190.363281 158.574219 189.761719 C 158.824219 189.15625 159.132812 188.582031 159.5 188.042969 C 159.867188 187.5 160.285156 187.003906 160.757812 186.546875 C 161.226562 186.089844 161.734375 185.6875 162.289062 185.335938 C 162.839844 184.984375 163.421875 184.691406 164.03125 184.457031 C 164.644531 184.226562 165.273438 184.054688 165.917969 183.953125 C 175.597656 181.953125 185.378906 180.996094 195.261719 181.078125 C 205.144531 181.160156 214.90625 182.277344 224.550781 184.433594 C 225.167969 184.5625 225.765625 184.753906 226.347656 185.003906 C 226.925781 185.253906 227.476562 185.554688 227.996094 185.914062 C 228.515625 186.269531 228.996094 186.675781 229.4375 187.125 C 229.878906 187.578125 230.269531 188.070312 230.613281 188.597656 C 230.957031 189.125 231.246094 189.683594 231.480469 190.269531 C 231.714844 190.855469 231.890625 191.457031 232.003906 192.078125 C 232.121094 192.699219 232.175781 193.324219 232.167969 193.957031 C 232.160156 194.585938 232.089844 195.210938 231.957031 195.828125 Z M 231.957031 195.828125 " fill-opacity="1" fill-rule="nonzero"/></g><g clip-path="url(#id2)"><path fill="rgb(100%, 100%, 100%)" d="M 213.488281 126.878906 C 213.488281 127.574219 213.453125 128.265625 213.386719 128.957031 C 213.320312 129.648438 213.214844 130.335938 213.082031 131.015625 C 212.945312 131.699219 212.777344 132.371094 212.574219 133.035156 C 212.375 133.699219 212.140625 134.351562 211.875 134.996094 C 211.609375 135.636719 211.3125 136.261719 210.984375 136.875 C 210.65625 137.488281 210.300781 138.082031 209.914062 138.660156 C 209.527344 139.238281 209.113281 139.792969 208.675781 140.332031 C 208.234375 140.867188 207.765625 141.382812 207.277344 141.875 C 206.785156 142.363281 206.269531 142.832031 205.734375 143.269531 C 205.195312 143.710938 204.640625 144.125 204.0625 144.511719 C 203.484375 144.894531 202.890625 145.253906 202.277344 145.578125 C 201.664062 145.90625 201.035156 146.203125 200.394531 146.46875 C 199.753906 146.734375 199.097656 146.96875 198.433594 147.171875 C 197.769531 147.371094 197.097656 147.539062 196.414062 147.675781 C 195.734375 147.8125 195.046875 147.914062 194.355469 147.980469 C 193.664062 148.050781 192.972656 148.082031 192.277344 148.082031 C 191.582031 148.082031 190.890625 148.050781 190.199219 147.980469 C 189.507812 147.914062 188.820312 147.8125 188.140625 147.675781 C 187.457031 147.539062 186.785156 147.371094 186.121094 147.171875 C 185.453125 146.96875 184.800781 146.734375 184.160156 146.46875 C 183.519531 146.203125 182.890625 145.90625 182.277344 145.578125 C 181.664062 145.253906 181.070312 144.894531 180.492188 144.511719 C 179.914062 144.125 179.359375 143.710938 178.820312 143.269531 C 178.285156 142.832031 177.769531 142.363281 177.277344 141.875 C 176.785156 141.382812 176.320312 140.867188 175.878906 140.332031 C 175.4375 139.792969 175.027344 139.238281 174.640625 138.660156 C 174.253906 138.082031 173.898438 137.488281 173.570312 136.875 C 173.242188 136.261719 172.945312 135.636719 172.679688 134.996094 C 172.414062 134.351562 172.179688 133.699219 171.980469 133.035156 C 171.777344 132.371094 171.609375 131.699219 171.472656 131.015625 C 171.335938 130.335938 171.234375 129.648438 171.167969 128.957031 C 171.097656 128.265625 171.066406 127.574219 171.066406 126.878906 C 171.066406 126.1875 171.097656 125.492188 171.167969 124.800781 C 171.234375 124.109375 171.335938 123.425781 171.472656 122.742188 C 171.609375 122.0625 171.777344 121.390625 171.980469 120.726562 C 172.179688 120.0625 172.414062 119.40625 172.679688 118.765625 C 172.945312 118.125 173.242188 117.496094 173.570312 116.886719 C 173.898438 116.273438 174.253906 115.675781 174.640625 115.101562 C 175.027344 114.523438 175.4375 113.964844 175.878906 113.429688 C 176.320312 112.890625 176.785156 112.378906 177.277344 111.886719 C 177.769531 111.394531 178.285156 110.929688 178.820312 110.488281 C 179.359375 110.050781 179.914062 109.636719 180.492188 109.25 C 181.070312 108.863281 181.664062 108.507812 182.277344 108.179688 C 182.890625 107.851562 183.519531 107.554688 184.160156 107.289062 C 184.800781 107.023438 185.453125 106.792969 186.121094 106.589844 C 186.785156 106.386719 187.457031 106.21875 188.140625 106.085938 C 188.820312 105.949219 189.507812 105.847656 190.199219 105.777344 C 190.890625 105.710938 191.582031 105.675781 192.277344 105.675781 C 192.972656 105.675781 193.664062 105.710938 194.355469 105.777344 C 195.046875 105.847656 195.734375 105.949219 196.414062 106.085938 C 197.097656 106.21875 197.769531 106.386719 198.433594 106.589844 C 199.097656 106.792969 199.753906 107.023438 200.394531 107.289062 C 201.035156 107.554688 201.664062 107.851562 202.277344 108.179688 C 202.890625 108.507812 203.484375 108.863281 204.0625 109.25 C 204.640625 109.636719 205.195312 110.050781 205.734375 110.488281 C 206.269531 110.929688 206.785156 111.394531 207.277344 111.886719 C 207.765625 112.378906 208.234375 112.890625 208.675781 113.429688 C 209.113281 113.964844 209.527344 114.523438 209.914062 115.101562 C 210.300781 115.675781 210.65625 116.273438 210.984375 116.886719 C 211.3125 117.496094 211.609375 118.125 211.875 118.765625 C 212.140625 119.40625 212.375 120.0625 212.574219 120.726562 C 212.777344 121.390625 212.945312 122.0625 213.082031 122.742188 C 213.214844 123.425781 213.320312 124.109375 213.386719 124.800781 C 213.453125 125.492188 213.488281 126.1875 213.488281 126.878906 Z M 213.488281 126.878906 " fill-opacity="1" fill-rule="nonzero"/></g><g clip-path="url(#id3)"><path fill="rgb(100%, 100%, 100%)" d="M 227.402344 42.714844 L 218.03125 31.707031 L 209.035156 31.707031 L 209.035156 60.882812 L 219.9375 60.882812 L 219.9375 49.875 L 229.289062 60.882812 L 238.285156 60.882812 L 238.285156 31.707031 L 227.402344 31.707031 Z M 227.402344 42.714844 " fill-opacity="1" fill-rule="nonzero"/></g><g clip-path="url(#id4)"><path fill="rgb(100%, 100%, 100%)" d="M 185.808594 85.867188 L 185.808594 68.683594 L 192.734375 68.683594 L 192.734375 61.164062 L 169.484375 61.164062 L 169.484375 68.683594 L 176.40625 68.683594 L 176.40625 85.867188 Z M 185.808594 85.867188 " fill-opacity="1" fill-rule="nonzero"/></g><g clip-path="url(#id5)"><path fill="rgb(100%, 100%, 100%)" d="M 154.3125 88.394531 L 154.3125 82.050781 L 129.832031 82.050781 L 129.832031 90.269531 L 140.390625 90.269531 L 129.46875 102.707031 L 129.46875 109.050781 L 154.902344 109.050781 L 154.902344 100.832031 L 143.390625 100.832031 Z M 154.3125 88.394531 " fill-opacity="1" fill-rule="nonzero"/></g><g clip-path="url(#id6)"><path fill="rgb(100%, 100%, 100%)" d="M 236.433594 115.417969 L 247.546875 115.417969 L 249.757812 121.203125 L 263.460938 121.203125 L 248.195312 85.972656 L 235.972656 85.972656 L 220.710938 121.203125 L 234.226562 121.203125 Z M 241.992188 100.820312 L 243.71875 105.3125 L 240.277344 105.3125 Z M 241.992188 100.820312 " fill-opacity="1" fill-rule="nonzero"/></g><g clip-path="url(#id7)"><path fill="rgb(100%, 100%, 100%)" d="M 191.152344 149.871094 C 198.613281 149.871094 204.613281 147.195312 208.511719 142.117188 L 209.144531 141.285156 L 199.652344 132.832031 L 198.90625 133.777344 C 196.832031 136.40625 194.554688 137.644531 191.78125 137.644531 C 187.25 137.644531 184.320312 134.496094 184.320312 129.621094 C 184.320312 124.742188 187.25 121.597656 191.78125 121.597656 C 194.578125 121.597656 196.832031 122.832031 198.90625 125.460938 L 199.652344 126.40625 L 209.144531 117.953125 L 208.511719 117.125 C 204.589844 112.042969 198.59375 109.371094 191.152344 109.371094 C 178.636719 109.371094 169.570312 117.886719 169.570312 129.621094 C 169.570312 141.351562 178.636719 149.871094 191.152344 149.871094 Z M 191.152344 149.871094 " fill-opacity="1" fill-rule="nonzero"/></g></svg>